<svg width="611" height="444" xmlns="http://www.w3.org/2000/svg" xmlns:xlink="http://www.w3.org/1999/xlink" overflow="hidden"><defs><clipPath id="clip0"><rect x="1556" y="941" width="611" height="444"/></clipPath></defs><g clip-path="url(#clip0)" transform="translate(-1556 -941)"><path d="M2043.39 1028.68 2035.36 1036.19C2034.25 1037.23 2034.2 1038.97 2035.23 1040.08L2062.01 1068.7C2063.04 1069.81 2064.78 1069.87 2065.89 1068.83L2073.92 1061.31C2075.03 1060.28 2075.08 1058.54 2074.05 1057.43L2047.27 1028.8C2046.24 1027.7 2044.5 1027.64 2043.39 1028.68ZM2067.95 1005.69 2059.92 1013.2C2058.81 1014.24 2058.75 1015.98 2059.79 1017.09L2086.56 1045.71C2087.6 1046.82 2089.34 1046.88 2090.45 1045.84L2098.47 1038.33C2099.58 1037.29 2099.64 1035.55 2098.6 1034.44L2071.83 1005.82C2070.79 1004.71 2069.05 1004.65 2067.95 1005.69ZM2092.5 982.705 2084.48 990.218C2083.37 991.256 2083.31 992.996 2084.35 994.104L2111.12 1022.73C2112.16 1023.84 2113.9 1023.89 2115 1022.86L2123.03 1015.34C2124.14 1014.31 2124.2 1012.57 2123.16 1011.46L2096.39 982.834C2095.35 981.726 2093.61 981.668 2092.5 982.705ZM2126.38 946.622C2127.31 945.752 2128.77 945.8 2129.64 946.73L2161.38 980.664C2162.25 981.595 2162.2 983.054 2161.27 983.924L2144.84 999.301 2147.33 1005.92C2147.15 1011.37 2144.89 1016.74 2140.6 1020.76L2072.12 1084.86C2063.54 1092.89 2050.07 1092.44 2042.05 1083.86L2043.37 1085.28 1949.84 1172.82 1978.71 1197.89C2022.99 1244.49 2050.37 1308.88 2050.37 1380 1968.81 1380 1887.25 1380 1805.69 1380L1561 1380C1561 1237.76 1670.55 1122.45 1805.69 1122.45 1839.47 1122.45 1871.66 1129.66 1900.93 1142.69L1916.82 1151.77 2017.46 1057.57 2018.79 1058.99C2010.76 1050.41 2011.21 1036.94 2019.79 1028.91L2088.27 964.807C2092.56 960.791 2098.07 958.895 2103.51 959.076L2109.95 961.999Z" stroke="#000000" stroke-width="10.3125" stroke-miterlimit="8" fill="#FF0000" fill-rule="evenodd"/></g></svg>